<svg id="Group_611" data-name="Group 611" xmlns="http://www.w3.org/2000/svg" width="72" height="72" viewBox="0 0 72 72">
  <circle id="Ellipse_1" data-name="Ellipse 1" cx="36" cy="36" r="36" fill="#4169e1"/>
  <g id="sd-card" transform="translate(23 20)">
    <g id="Group_578" data-name="Group 578">
      <path id="Path_514" data-name="Path 514" d="M75.2,0H56a1.512,1.512,0,0,0-1.6,1.6v8l-3.2,5.44V30.4A1.721,1.721,0,0,0,52.8,32H75.2a1.721,1.721,0,0,0,1.6-1.6V1.6A1.6,1.6,0,0,0,75.2,0ZM60.8,9.6H57.6V3.2h3.2Zm6.4,0H64V3.2h3.2Zm6.4,0H70.4V3.2h3.2Z" transform="translate(-51.2)" fill="#fff"/>
    </g>
  </g>
</svg>
