<svg xmlns="http://www.w3.org/2000/svg" width="72" height="72" viewBox="0 0 72 72">
  <g id="Group_650" data-name="Group 650" transform="translate(-987 -1506)">
    <g id="Group_613" data-name="Group 613" transform="translate(986.535 1506)">
      <circle id="Ellipse_3" data-name="Ellipse 3" cx="36" cy="36" r="36" transform="translate(0.465)" fill="#4169e1"/>
      <path id="secure" d="M40.606,4.5a1.051,1.051,0,0,0-.759-.867L26.928.039a1.05,1.05,0,0,0-.563,0L13.445,3.632a1.051,1.051,0,0,0-.759.867c-.075.539-1.784,13.27,2.6,19.6A20.626,20.626,0,0,0,26.4,32.116a1.054,1.054,0,0,0,.493,0A20.625,20.625,0,0,0,38.006,24.1C42.391,17.769,40.681,5.038,40.606,4.5Zm-5.629,7.433-8.812,8.812a1.05,1.05,0,0,1-1.486,0L19.231,15.3a1.05,1.05,0,0,1,0-1.486l1.082-1.082a1.05,1.05,0,0,1,1.486,0l3.624,3.624L32.41,9.364a1.05,1.05,0,0,1,1.486,0l1.082,1.082A1.051,1.051,0,0,1,34.978,11.932Z" transform="translate(8.704 20)" fill="#fff"/>
    </g>
  </g>
</svg>
