<svg xmlns="http://www.w3.org/2000/svg" width="464.65" height="357.541" viewBox="0 0 464.65 357.541">
  <g id="Group_638" data-name="Group 638" transform="translate(-788.02 -135.89)">
    <rect id="Rectangle_555" data-name="Rectangle 555" width="382.082" height="252.872" rx="6" transform="translate(829.957 193.397)" fill="#4169e1"/>
    <rect id="Rectangle_556" data-name="Rectangle 556" width="231.464" height="366.222" rx="3" transform="translate(1204.108 201.327) rotate(90)" fill="#fff"/>
    <rect id="Rectangle_557" data-name="Rectangle 557" width="92.742" height="31.442" transform="translate(974.626 446.268)" fill="#4169e1"/>
    <path id="Path_544" data-name="Path 544" d="M225.516,212.773H102.34a7.86,7.86,0,0,1-7.86-7.86h0A7.878,7.878,0,0,1,102.34,197H225.6a7.86,7.86,0,0,1,7.86,7.86h0a7.86,7.86,0,0,1-7.947,7.913Z" transform="translate(857.104 280.658)" fill="#4169e1"/>
    <path id="Path_566" data-name="Path 566" d="M5,0H163.512a5,5,0,0,1,5,5V110.384a5,5,0,0,1-5,5H5a5,5,0,0,1-5-5V5A5,5,0,0,1,5,0Z" transform="translate(856.077 239.411)" fill="#4169e1"/>
    <path id="Path_545" data-name="Path 545" d="M43.643,60H199.377a8.7,8.7,0,0,1,8.7,8.7v11.86H39.56V68.7c0-4.8-.719-8.7,4.083-8.7Z" transform="translate(816.517 179.411)" fill="#e42662"/>
    <line id="Line_12" data-name="Line 12" x2="10.799" transform="translate(870.719 270.366)" fill="none" stroke="#fff" stroke-linecap="round" stroke-linejoin="round" stroke-width="2"/>
    <line id="Line_13" data-name="Line 13" x2="42.38" transform="translate(870.719 276.905)" fill="none" stroke="#fff" stroke-linecap="round" stroke-linejoin="round" stroke-width="2"/>
    <line id="Line_14" data-name="Line 14" x2="32.224" transform="translate(919.151 276.905)" fill="none" stroke="#fff" stroke-linecap="round" stroke-linejoin="round" stroke-width="2"/>
    <line id="Line_15" data-name="Line 15" x2="21.199" transform="translate(959.984 276.905)" fill="none" stroke="#fff" stroke-linecap="round" stroke-linejoin="round" stroke-width="2"/>
    <line id="Line_16" data-name="Line 16" x2="10.799" transform="translate(870.719 288.852)" fill="none" stroke="#fff" stroke-linecap="round" stroke-linejoin="round" stroke-width="2"/>
    <line id="Line_17" data-name="Line 17" x2="47.388" transform="translate(870.719 295.408)" fill="none" stroke="#fff" stroke-linecap="round" stroke-linejoin="round" stroke-width="2"/>
    <line id="Line_18" data-name="Line 18" x2="36.05" transform="translate(924.855 295.408)" fill="none" stroke="#fff" stroke-linecap="round" stroke-linejoin="round" stroke-width="2"/>
    <line id="Line_19" data-name="Line 19" x2="46.241" transform="translate(970.522 295.408)" fill="none" stroke="#fff" stroke-linecap="round" stroke-linejoin="round" stroke-width="2"/>
    <line id="Line_20" data-name="Line 20" x2="10.799" transform="translate(870.719 307.355)" fill="none" stroke="#fff" stroke-linecap="round" stroke-linejoin="round" stroke-width="2"/>
    <line id="Line_21" data-name="Line 21" x2="42.38" transform="translate(870.719 313.894)" fill="none" stroke="#fff" stroke-linecap="round" stroke-linejoin="round" stroke-width="2"/>
    <line id="Line_22" data-name="Line 22" x2="19.425" transform="translate(919.151 313.894)" fill="none" stroke="#fff" stroke-linecap="round" stroke-linejoin="round" stroke-width="2"/>
    <line id="Line_23" data-name="Line 23" x2="51.075" transform="translate(947.184 313.894)" fill="none" stroke="#fff" stroke-linecap="round" stroke-linejoin="round" stroke-width="2"/>
    <line id="Line_24" data-name="Line 24" x2="10.799" transform="translate(870.719 325.841)" fill="none" stroke="#fff" stroke-linecap="round" stroke-linejoin="round" stroke-width="2"/>
    <line id="Line_25" data-name="Line 25" x2="42.38" transform="translate(870.719 332.397)" fill="none" stroke="#fff" stroke-linecap="round" stroke-linejoin="round" stroke-width="2"/>
    <line id="Line_26" data-name="Line 26" x2="32.224" transform="translate(919.151 332.397)" fill="none" stroke="#fff" stroke-linecap="round" stroke-linejoin="round" stroke-width="2"/>
    <rect id="Rectangle_559" data-name="Rectangle 559" width="178.285" height="140.722" rx="5.49" transform="translate(1015.093 276.435)" fill="#ffaac5"/>
    <circle id="Ellipse_54" data-name="Ellipse 54" cx="29.285" cy="29.285" r="29.285" transform="translate(1063.461 327.388) rotate(-45)" fill="#fff"/>
    <path id="Path_546" data-name="Path 546" d="M195.6,114.231l-16.051-10.573a2.069,2.069,0,0,0-3.217,1.739v21.164a2.087,2.087,0,0,0,3.217,1.739L195.6,117.709a2.087,2.087,0,0,0,0-3.478Z" transform="translate(920.569 210.87)" fill="#e42662"/>
    <path id="Path_547" data-name="Path 547" d="M131,139.88H309.285v29.285a9.547,9.547,0,0,1-9.547,9.547H140.547A9.547,9.547,0,0,1,131,169.165Z" transform="translate(884.093 238.445)" fill="#ffaac5"/>
    <line id="Line_27" data-name="Line 27" x2="46.484" transform="translate(1029.093 388.515)" fill="none" stroke="#f5f5f5" stroke-linecap="round" stroke-linejoin="round" stroke-width="3.3"/>
    <line id="Line_28" data-name="Line 28" x2="78.326" transform="translate(1090.863 388.515)" fill="none" stroke="#f5f5f5" stroke-linecap="round" stroke-linejoin="round" stroke-width="3.3"/>
    <line id="Line_29" data-name="Line 29" x2="23.251" transform="translate(1029.093 403.784)" fill="none" stroke="#f5f5f5" stroke-linecap="round" stroke-linejoin="round" stroke-width="3.3"/>
    <line id="Line_30" data-name="Line 30" x2="44.571" transform="translate(1064.76 403.784)" fill="none" stroke="#f5f5f5" stroke-linecap="round" stroke-linejoin="round" stroke-width="3.3"/>
    <line id="Line_37" data-name="Line 37" x2="6.174" transform="translate(870.406 367.856)" fill="none" stroke="#fff" stroke-linecap="round" stroke-linejoin="round" stroke-width="1.16"/>
    <rect id="Rectangle_562" data-name="Rectangle 562" width="125.21" height="113.037" transform="translate(965.531 151.312)" fill="#ffaac5"/>
    <path id="Path_565" data-name="Path 565" d="M0,0H104.776V61.735H0Z" transform="translate(975.531 161.885)" fill="#fff"/>
    <path id="Path_556" data-name="Path 556" d="M108.25,44.821,123.9,29.17l38.467,38.485H108.25Z" transform="translate(867.281 156.627)" fill="#e42662"/>
    <path id="Path_558" data-name="Path 558" d="M136.265,26.6a5.513,5.513,0,1,1-5.513-5.513A5.513,5.513,0,0,1,136.265,26.6Z" transform="translate(879.836 150.656)" fill="#e42662"/>
    <rect id="Rectangle_564" data-name="Rectangle 564" width="46.954" height="29.563" transform="translate(1112.914 137)" fill="none" stroke="#4169e1" stroke-linecap="round" stroke-linejoin="round" stroke-width="2"/>
    <path id="Path_559" data-name="Path 559" d="M187.25,1.11l23.477,18.26L234.2,1.11Z" transform="translate(925.664 135.89)" fill="none" stroke="#4169e1" stroke-linecap="round" stroke-linejoin="round" stroke-width="2.22"/>
    <line id="Line_57" data-name="Line 57" y1="15.86" x2="15.373" transform="translate(1112.914 148.965)" fill="none" stroke="#4169e1" stroke-linecap="round" stroke-linejoin="round" stroke-width="2.22"/>
    <line id="Line_58" data-name="Line 58" x2="15.39" y2="15.86" transform="translate(1144.477 148.965)" fill="none" stroke="#4169e1" stroke-linecap="round" stroke-linejoin="round" stroke-width="2.22"/>
    <circle id="Ellipse_56" data-name="Ellipse 56" cx="16.782" cy="16.782" r="16.782" transform="translate(884.44 145.104)" fill="none" stroke="#4169e1" stroke-linecap="round" stroke-linejoin="round" stroke-width="2"/>
    <path id="Path_560" data-name="Path 560" d="M61.17,19.5l3.913,3.9,11.2-11.2" transform="translate(832.487 144.086)" fill="none" stroke="#4169e1" stroke-linecap="round" stroke-linejoin="round" stroke-width="2"/>
    <path id="Path_561" data-name="Path 561" d="M8,62.96l.1,17.582s11.669-4.852,12.173-13.46C20.73,59.4,11.478,57.865,8,62.96Z" transform="translate(793.193 179.407)" fill="#4169e1"/>
    <path id="Path_562" data-name="Path 562" d="M13.182,62.929l.1,17.582s-11.651-4.7-12.278-13.3C.5,59.52,9.7,57.885,13.182,62.929Z" transform="translate(788.011 179.439)" fill="#4169e1"/>
    <circle id="Ellipse_57" data-name="Ellipse 57" cx="4" cy="4" r="4" transform="translate(832.617 159.868)" fill="none" stroke="#4169e1" stroke-miterlimit="10" stroke-width="2"/>
    <path id="Path_563" data-name="Path 563" d="M242.04,13.9a4,4,0,1,1-3.982-4A4,4,0,0,1,242.04,13.9Z" transform="translate(960.243 142.386)" fill="none" stroke="#4169e1" stroke-miterlimit="10" stroke-width="2"/>
    <path id="Path_564" data-name="Path 564" d="M261.979,147.44a3.982,3.982,0,1,1-1.166-2.833A4,4,0,0,1,261.979,147.44Z" transform="translate(974.979 241.076)" fill="none" stroke="#4169e1" stroke-linecap="round" stroke-linejoin="round" stroke-width="2"/>
    <line id="Line_59" data-name="Line 59" y2="8" transform="translate(948.854 169.259)" fill="none" stroke="#4169e1" stroke-linecap="round" stroke-linejoin="round" stroke-width="2"/>
    <line id="Line_60" data-name="Line 60" x1="8" transform="translate(944.854 173.259)" fill="none" stroke="#4169e1" stroke-linecap="round" stroke-linejoin="round" stroke-width="2"/>
    <line id="Line_61" data-name="Line 61" y2="8" transform="translate(1247.671 321.841)" fill="none" stroke="#4169e1" stroke-linecap="round" stroke-linejoin="round" stroke-width="2"/>
    <line id="Line_62" data-name="Line 62" x1="8" transform="translate(1243.671 325.841)" fill="none" stroke="#4169e1" stroke-linecap="round" stroke-linejoin="round" stroke-width="2"/>
    <line id="Line_63" data-name="Line 63" y2="8" transform="translate(793.02 404.445)" fill="none" stroke="#d87448" stroke-linecap="round" stroke-linejoin="round" stroke-width="2"/>
    <line id="Line_64" data-name="Line 64" x1="8" transform="translate(789.02 408.445)" fill="none" stroke="#4169e1" stroke-linecap="round" stroke-linejoin="round" stroke-width="2"/>
  </g>
</svg>
